<?xml version="1.0" encoding="UTF-8" standalone="no"?>
<svg
   xmlns:dc="http://purl.org/dc/elements/1.1/"
   xmlns:cc="http://creativecommons.org/ns#"
   xmlns:rdf="http://www.w3.org/1999/02/22-rdf-syntax-ns#"
   xmlns:svg="http://www.w3.org/2000/svg"
   xmlns="http://www.w3.org/2000/svg"
   xmlns:sodipodi="http://sodipodi.sourceforge.net/DTD/sodipodi-0.dtd"
   xmlns:inkscape="http://www.inkscape.org/namespaces/inkscape"
   width="29.20779"
   height="24.40625"
   viewBox="0 0 29.20779 24.40625"
   version="1.1"
   id="svg12"
   sodipodi:docname="logo_hive_white.svg"
   inkscape:version="0.92.3 (2405546, 2018-03-11)">
  <metadata
     id="metadata18">
    <rdf:RDF>
      <cc:Work
         rdf:about="">
        <dc:format>image/svg+xml</dc:format>
        <dc:type
           rdf:resource="http://purl.org/dc/dcmitype/StillImage" />
        <dc:title></dc:title>
      </cc:Work>
    </rdf:RDF>
  </metadata>
  <defs
     id="defs16" />
  <sodipodi:namedview
     pagecolor="#ffffff"
     bordercolor="#666666"
     borderopacity="1"
     objecttolerance="10"
     gridtolerance="10"
     guidetolerance="10"
     inkscape:pageopacity="0"
     inkscape:pageshadow="2"
     inkscape:window-width="1920"
     inkscape:window-height="1001"
     id="namedview14"
     showgrid="false"
     fit-margin-top="0"
     fit-margin-left="0"
     fit-margin-right="0"
     fit-margin-bottom="0"
     inkscape:zoom="22.627417"
     inkscape:cx="26.995586"
     inkscape:cy="12.337881"
     inkscape:window-x="-9"
     inkscape:window-y="-9"
     inkscape:window-maximized="1"
     inkscape:current-layer="svg12" />
  <path
     style="fill:#ffffff;stroke:none;stroke-width:1.21461892px;stroke-linecap:butt;stroke-linejoin:miter;stroke-opacity:1"
     d="M 7.4023438 0 L 0 12.265625 L 7.4160156 24.40625 L 21.916016 24.40625 L 29.207031 12.246094 L 21.849609 0 L 7.4023438 0 z M 9.6503906 3.8417969 C 9.6795535 3.8417309 9.7097695 3.8552765 9.7265625 3.8828125 L 14.773438 12.160156 C 14.789217 12.185926 14.790971 12.218311 14.775391 12.244141 L 9.78125 20.523438 C 9.7479366 20.578668 9.6644474 20.578508 9.6308594 20.523438 L 4.5820312 12.246094 C 4.5663212 12.220334 4.5664492 12.187939 4.5820312 12.162109 L 9.5761719 3.8828125 C 9.5928289 3.8552005 9.6212276 3.8418633 9.6503906 3.8417969 z M 12.044922 3.8417969 L 14.650391 3.8417969 C 14.681091 3.8417969 14.711182 3.8571535 14.726562 3.8828125 L 19.0625 11.119141 C 19.095693 11.174522 19.052568 11.242188 18.986328 11.242188 L 16.380859 11.242188 C 16.350159 11.242187 16.320068 11.226832 16.304688 11.201172 L 11.970703 3.9648438 C 11.937512 3.9094586 11.978672 3.8417969 12.044922 3.8417969 z M 16.970703 3.8417969 L 19.582031 3.8417969 C 19.612851 3.8417969 19.638877 3.8571315 19.654297 3.8828125 L 24.625 12.162109 C 24.64044 12.187829 24.64044 12.218411 24.625 12.244141 L 19.654297 20.523438 C 19.638877 20.549127 19.612841 20.564453 19.582031 20.564453 L 16.970703 20.564453 C 16.904213 20.564453 16.863234 20.494843 16.896484 20.439453 L 21.841797 12.203125 L 16.896484 3.9648438 C 16.863234 3.9094586 16.904263 3.8417969 16.970703 3.8417969 z M 16.308594 13.283203 L 18.916016 13.283203 C 18.982236 13.283203 19.023424 13.35087 18.990234 13.40625 L 14.726562 20.523438 C 14.711182 20.549098 14.681081 20.564453 14.650391 20.564453 L 12.044922 20.564453 C 11.978702 20.564453 11.937513 20.494843 11.970703 20.439453 L 16.236328 13.322266 C 16.251708 13.296606 16.277904 13.283203 16.308594 13.283203 z "
     id="path4558" />
  <path
     inkscape:connector-curvature="0"
     id="path4567"
     d="M 37.125,10.889804 44.526584,-1.375 H 58.973908 L 66.33279,10.870826 59.040332,23.03125 H 44.540818 Z"
     style="fill:#ffff00;stroke:none;stroke-width:1.21461892px;stroke-linecap:butt;stroke-linejoin:miter;stroke-opacity:1" />
  <path
     inkscape:connector-curvature="0"
     id="path4569"
     d="m 45.805158,0.827806 c -0.03488,7.94e-5 -0.06992,0.015804 -0.08984,0.048828 l -5.972656,9.902344 c -0.01864,0.03089 -0.01879,0.0688 0,0.09961 l 6.039062,9.900391 c 0.04017,0.06586 0.139845,0.06605 0.179688,0 l 5.972656,-9.902344 c 0.01863,-0.03089 0.01684,-0.0688 -0.002,-0.09961 L 45.895001,0.8766341 C 45.874916,0.8437006 45.840036,0.8277266 45.805158,0.827806 Z m 2.863281,0 c -0.07924,0 -0.12954,0.082197 -0.08984,0.1484375 L 53.764146,9.63054 c 0.01839,0.03069 0.05313,0.04883 0.08984,0.04883 h 3.117188 c 0.07923,0 0.129543,-0.0822 0.08984,-0.148437 L 51.87547,0.8766341 C 51.85708,0.8459457 51.82234,0.827806 51.78563,0.827806 Z m 5.890625,0 c -0.07946,0 -0.127661,0.082197 -0.08789,0.1484375 l 5.914062,9.8515625 -5.914062,9.851562 c -0.03977,0.06624 0.0084,0.148438 0.08789,0.148438 h 3.123047 c 0.03685,0 0.06945,-0.01811 0.08789,-0.04883 l 5.945312,-9.902344 c 0.01847,-0.03077 0.01847,-0.06689 0,-0.09766 L 57.770002,0.8766341 c -0.01844,-0.030715 -0.05104,-0.048828 -0.08789,-0.048828 z m -0.791016,11.291016 c -0.03671,0 -0.0695,0.01814 -0.08789,0.04883 l -5.101563,8.511716 c -0.0397,0.06624 0.0106,0.148438 0.08984,0.148438 h 3.117188 c 0.03671,0 0.07145,-0.01814 0.08984,-0.04883 l 5.09961,-8.511719 c 0.0397,-0.06624 -0.0106,-0.148437 -0.08984,-0.148437 z"
     style="fill:#e31337" />
</svg>
